<?xml version="1.0" ?><!DOCTYPE svg  PUBLIC '-//W3C//DTD SVG 1.1//EN'  'http://www.w3.org/Graphics/SVG/1.1/DTD/svg11.dtd'><svg enable-background="new 0 0 75 75" height="75px" id="Layer_1" version="1.1" viewBox="0 0 75 75" width="75px" xml:space="preserve" xmlns="http://www.w3.org/2000/svg" xmlns:xlink="http://www.w3.org/1999/xlink"><g><g><path d="M53.562,33.611c-0.279-0.867-1.029-1.498-1.932-1.629l-8.281-1.203l-3.705-7.506    c-0.807-1.633-3.482-1.633-4.291,0l-3.703,7.506l-8.283,1.203c-0.9,0.131-1.65,0.762-1.932,1.629s-0.045,1.816,0.607,2.453    l5.992,5.842l-1.414,8.248c-0.154,0.896,0.215,1.805,0.951,2.34c0.74,0.535,1.713,0.607,2.52,0.184l7.408-3.896l7.408,3.896    c0.352,0.182,0.732,0.273,1.113,0.273c0.494,0,0.988-0.156,1.406-0.457c0.734-0.535,1.105-1.443,0.951-2.34l-1.414-8.248    l5.992-5.842C53.609,35.428,53.844,34.479,53.562,33.611z" fill="#ED9015"/><path d="M35.354,23.273l-3.703,7.506l-8.283,1.203c-0.9,0.131-1.65,0.762-1.932,1.629s-0.045,1.816,0.607,2.453    l5.992,5.842l-1.414,8.248c-0.154,0.896,0.215,1.805,0.951,2.34c0.74,0.535,1.713,0.607,2.52,0.184l7.408-3.896V22.049    C36.629,22.049,35.758,22.457,35.354,23.273z" fill="#EAB818"/><path d="M46.971,41.945l-0.006-0.039l5.992-5.842c0.652-0.637,0.887-1.586,0.605-2.453    c-0.279-0.867-1.029-1.498-1.932-1.629l-8.281-1.203l-3.705-7.506c-0.807-1.633-3.482-1.633-4.291,0l-3.703,7.506l-0.055,0.008    L46.971,41.945z" fill="#F26606"/><path d="M37.5,35.072V22.049c-0.871,0-1.742,0.408-2.146,1.225l-3.703,7.506l-0.055,0.008L37.5,35.072z" fill="#ED9015"/></g><g><g><g><path d="M37.5,13.199c-1.178,0-2.131-0.953-2.131-2.131V8.406c0-1.178,0.953-2.131,2.131-2.131      c1.176,0,2.129,0.953,2.129,2.131v2.662C39.629,12.246,38.676,13.199,37.5,13.199z" fill="#ED9015"/></g><g><path d="M37.5,68.725c-1.178,0-2.131-0.955-2.131-2.131v-2.662c0-1.178,0.953-2.131,2.131-2.131      c1.176,0,2.129,0.953,2.129,2.131v2.662C39.629,67.77,38.676,68.725,37.5,68.725z" fill="#ED9015"/></g></g></g><g><g><g><path d="M54.684,20.316c-0.832-0.832-0.832-2.182,0-3.014l1.883-1.883c0.832-0.832,2.182-0.832,3.012,0      c0.834,0.832,0.834,2.182,0,3.014l-1.883,1.883C56.863,21.148,55.514,21.148,54.684,20.316z" fill="#ED9015"/></g><g><path d="M15.42,59.578c-0.832-0.83-0.832-2.18,0-3.012l1.883-1.883c0.832-0.832,2.182-0.832,3.014,0      s0.832,2.182,0,3.014l-1.883,1.881C17.602,60.412,16.252,60.412,15.42,59.578z" fill="#ED9015"/></g></g></g><g><g><g><path d="M61.801,37.5c0-1.178,0.953-2.131,2.131-2.131h2.662c1.176,0,2.131,0.955,2.131,2.131      s-0.955,2.131-2.131,2.131h-2.662C62.754,39.631,61.801,38.676,61.801,37.5z" fill="#ED9015"/></g><g><path d="M6.275,37.5c-0.002-1.178,0.953-2.131,2.131-2.131h2.662c1.176,0,2.131,0.955,2.131,2.131      c-0.002,1.176-0.955,2.131-2.131,2.131H8.406C7.229,39.631,6.275,38.676,6.275,37.5z" fill="#ED9015"/></g></g></g><g><g><g><path d="M54.684,54.684c0.832-0.832,2.18-0.832,3.012,0l1.883,1.883c0.834,0.832,0.832,2.182,0,3.012      c-0.83,0.834-2.18,0.834-3.012,0l-1.883-1.881C53.852,56.865,53.852,55.514,54.684,54.684z" fill="#ED9015"/></g><g><path d="M15.42,15.42c0.832-0.832,2.182-0.832,3.014,0l1.883,1.883c0.832,0.832,0.832,2.182,0,3.014      s-2.182,0.832-3.014,0l-1.883-1.883C14.588,17.602,14.588,16.252,15.42,15.42z" fill="#ED9015"/></g></g></g></g></svg>